<svg width="106" height="60" viewBox="0 0 106 60" fill="none" xmlns="http://www.w3.org/2000/svg">
<path d="M53.425 27.4081C52.9819 26.8183 52.7699 26.1212 52.8203 25.4195V22.5363C52.8203 21.6525 53.0207 20.9808 53.4216 20.5213C53.8224 20.0618 54.511 19.833 55.4871 19.835C56.4044 19.835 57.0555 20.0305 57.4405 20.4216C57.8605 20.9206 58.0648 21.5307 58.018 22.1462V22.8238H56.3772V22.1374C56.383 21.9128 56.3671 21.6881 56.3296 21.4657C56.306 21.3137 56.2234 21.1731 56.0952 21.0669C55.9267 20.9523 55.7145 20.8968 55.5007 20.9114C55.2759 20.8969 55.0529 20.9555 54.8756 21.0757C54.7327 21.1933 54.6374 21.3476 54.6038 21.5156C54.5567 21.7509 54.5351 21.9896 54.5393 22.2283V25.7275C54.5134 26.065 54.5858 26.4028 54.7499 26.71C54.8315 26.814 54.9448 26.8964 55.0774 26.9482C55.2099 26.9999 55.3564 27.019 55.5007 27.0034C55.7109 27.0183 55.9195 26.9614 56.0816 26.845C56.2153 26.7304 56.3013 26.5809 56.3262 26.4197C56.3645 26.1875 56.3816 25.9531 56.3772 25.7187V25.0089H58.018V25.6571C58.0641 26.2986 57.8648 26.9355 57.4507 27.4697C57.0736 27.8979 56.4315 28.112 55.4871 28.112C54.5427 28.112 53.8292 27.8833 53.425 27.4081Z" fill="#AFB1B8"/>
<path d="M60.2569 27.4374C59.8424 26.9887 59.6352 26.3346 59.6352 25.4694V22.4366C59.6352 21.5801 59.8424 20.9319 60.2569 20.492C60.6713 20.052 61.3644 19.833 62.3359 19.835C63.3007 19.835 63.9904 20.054 64.4048 20.492C64.8193 20.9319 65.0299 21.5801 65.0299 22.4366V25.4694C65.0299 26.3258 64.8193 26.9828 64.398 27.4345C63.9768 27.8862 63.2906 28.112 62.3359 28.112C61.3813 28.112 60.6747 27.8833 60.2569 27.4374ZM63.1003 26.71C63.2487 26.4289 63.3163 26.121 63.2974 25.8125V22.0993C63.3164 21.7968 63.2499 21.4948 63.1037 21.2194C63.0205 21.1132 62.9043 21.0295 62.7686 20.9776C62.6328 20.9257 62.4829 20.9079 62.3359 20.9261C62.1885 20.9083 62.0383 20.9264 61.9021 20.9782C61.7659 21.03 61.6491 21.1135 61.5648 21.2194C61.4154 21.494 61.3477 21.7964 61.3678 22.0993V25.8301C61.3471 26.1387 61.4148 26.447 61.5648 26.7276C61.6604 26.8223 61.7785 26.8981 61.9109 26.95C62.0433 27.002 62.1871 27.0289 62.3326 27.0289C62.478 27.0289 62.6218 27.002 62.7542 26.95C62.8866 26.8981 63.0047 26.8223 63.1003 26.7276V26.71Z" fill="#AFB1B8"/>
<path d="M67.0035 19.9236H68.7701L70.0984 25.5192L71.4573 19.9236H73.1763L73.3496 28.0003H72.079L71.9431 22.3871L70.6318 28.0003H69.6126L68.2537 22.3665L68.128 28.0003H66.8439L67.0035 19.9236Z" fill="#AFB1B8"/>
<path d="M75.3302 19.9236H78.0819C79.6673 19.9236 80.4599 20.688 80.4599 22.217C80.4599 23.6814 79.6254 24.4126 77.9562 24.4106H77.0186V28.0003H75.32L75.3302 19.9236ZM77.6811 23.3754C77.8489 23.3938 78.0193 23.3805 78.1806 23.3364C78.3419 23.2924 78.4902 23.2186 78.6153 23.1203C78.8101 22.8475 78.896 22.5271 78.8599 22.2082C78.8688 21.9618 78.8414 21.7154 78.7783 21.475C78.7541 21.3947 78.7116 21.3194 78.6533 21.2534C78.5949 21.1874 78.522 21.1322 78.4386 21.0908C78.2028 20.9932 77.9422 20.9488 77.6811 20.9618H77.022V23.3754H77.6811Z" fill="#AFB1B8"/>
<path d="M82.9094 19.9236H84.7337L86.6055 28.0003H85.0225L84.6522 26.138H83.0249L82.6444 28.0003H81.0376L82.9094 19.9236ZM84.4687 25.2025L83.8334 21.8123L83.1982 25.2025H84.4687Z" fill="#AFB1B8"/>
<path d="M88.1173 19.9236H89.3063L91.5825 24.5309V19.9236H92.9923V28.0003H91.861L89.5713 23.1906V28.0003H88.1139L88.1173 19.9236Z" fill="#AFB1B8"/>
<path d="M96.2945 24.9207L94.4022 19.9348H95.9955L97.1506 23.1375L98.2343 19.9348H99.7936L97.9251 24.9207V28.0002H96.2945V24.9207Z" fill="#AFB1B8"/>
<path d="M56.0477 31.5315V31.9538H54.6617V35.2358H54.0807V31.9538H52.6879V31.5315H56.0477Z" fill="#AFB1B8"/>
<path d="M60.3927 35.2361H59.9442C59.8987 35.2385 59.8538 35.2259 59.8185 35.2009C59.7846 35.1794 59.7587 35.1498 59.7438 35.1158L59.3429 34.236H57.4201L57.0192 35.1158C57.0078 35.1526 56.9869 35.1867 56.958 35.2155C56.9225 35.2401 56.8778 35.2526 56.8324 35.2507H56.3839L58.0825 31.5466H58.6737L60.3927 35.2361ZM57.5797 33.8606H59.1833L58.5038 32.3531C58.4537 32.2391 58.4117 32.1226 58.3781 32.0041C58.3543 32.0745 58.3339 32.142 58.3136 32.2006L58.2524 32.3561L57.5797 33.8606Z" fill="#AFB1B8"/>
<path d="M63.3211 34.8724C63.4275 34.8772 63.5341 34.8772 63.6404 34.8724C63.7323 34.8642 63.8232 34.8495 63.9122 34.8284C63.9954 34.8107 64.0772 34.7882 64.1568 34.7609C64.2316 34.7345 64.3063 34.7022 64.3844 34.67V33.8369H63.705C63.6882 33.8378 63.6714 33.8356 63.6556 33.8305C63.6398 33.8255 63.6254 33.8177 63.6133 33.8076C63.6021 33.7993 63.5933 33.7889 63.5874 33.7772C63.5815 33.7655 63.5787 33.7529 63.5793 33.7401V33.4556H64.8974V34.8753C64.7898 34.9417 64.6762 35.0006 64.5577 35.0513C64.4366 35.1029 64.3104 35.1451 64.1806 35.1774C64.0417 35.2127 63.8996 35.2382 63.7559 35.2537C63.5912 35.2695 63.4257 35.2773 63.26 35.2771C62.967 35.2793 62.6763 35.2325 62.4038 35.1393C62.1495 35.051 61.9184 34.9193 61.7244 34.7521C61.5353 34.5832 61.3864 34.3839 61.2862 34.1655C61.1791 33.9199 61.1261 33.6593 61.1299 33.397C61.1263 33.133 61.1781 32.8706 61.2828 32.6226C61.3805 32.4031 61.5297 32.2033 61.721 32.036C61.9149 31.8693 62.1461 31.7386 62.4005 31.6517C62.6914 31.5572 63.0001 31.5105 63.3109 31.5138C63.4691 31.5137 63.627 31.5245 63.7831 31.5461C63.9212 31.5655 64.0567 31.597 64.1874 31.64C64.3062 31.6785 64.4201 31.7277 64.5271 31.7866C64.6312 31.8445 64.7301 31.9092 64.8227 31.9802L64.6596 32.209C64.6468 32.2299 64.6278 32.2475 64.6045 32.2598C64.5812 32.2722 64.5545 32.279 64.5271 32.2794C64.4895 32.2784 64.453 32.2682 64.4218 32.2501C64.3708 32.2266 64.3165 32.1973 64.2553 32.1621C64.1831 32.123 64.1069 32.0896 64.0277 32.0624C63.9265 32.0273 63.8219 31.9998 63.7152 31.9802C63.5729 31.9576 63.4284 31.9468 63.2837 31.948C63.0596 31.9458 62.8371 31.9807 62.6281 32.0506C62.439 32.1161 62.2686 32.2162 62.1287 32.3439C61.9879 32.4771 61.8803 32.6339 61.8127 32.8045C61.661 33.2056 61.661 33.6381 61.8127 34.0393C61.8871 34.2135 62.0028 34.3724 62.1525 34.5057C62.2918 34.6328 62.4609 34.7328 62.6485 34.799C62.8645 34.8631 63.0934 34.888 63.3211 34.8724Z" fill="#AFB1B8"/>
<path d="M68.7362 34.8134H70.5911V35.2358H68.1689V31.5315H68.7498L68.7362 34.8134Z" fill="#AFB1B8"/>
<path d="M72.5208 35.2358H71.9398V31.5315H72.5208V35.2358Z" fill="#AFB1B8"/>
<path d="M74.6814 31.5491C74.7159 31.5661 74.746 31.5891 74.7697 31.6166L77.253 34.4089C77.2497 34.3649 77.2497 34.3209 77.253 34.2769C77.253 34.2358 77.253 34.1948 77.253 34.1566V31.5168H77.7592V35.236H77.4671C77.4238 35.2391 77.3804 35.232 77.3414 35.2155C77.3061 35.197 77.275 35.1732 77.2496 35.1451L74.7697 32.3557C74.7697 32.3997 74.7697 32.4408 74.7697 32.4818C74.7697 32.5229 74.7697 32.561 74.7697 32.5962V35.236H74.2839V31.5315H74.5863C74.6191 31.5316 74.6515 31.5376 74.6814 31.5491Z" fill="#AFB1B8"/>
<path d="M82.0364 31.5315V31.9392H79.9777V33.1622H81.6457V33.5553H79.9777V34.8194H82.0364V35.2271H79.3798V31.5315H82.0364Z" fill="#AFB1B8"/>
<path d="M21.1617 8.65538L46.9568 14.9787V37.1367L21.1617 30.8163V8.65538ZM19.5073 6.7666V31.8927L48.6079 39.0284V13.9053L19.5073 6.7666Z" fill="#AFB1B8"/>
<path d="M35.1039 50.6921L6 43.5504V18.427L35.1039 25.5657V50.6921Z" fill="#AFB1B8"/>
<path d="M19.9897 8.37086L45.4484 14.6149L34.6215 23.9648L9.1594 17.7178L19.9897 8.37086ZM19.5073 6.7666L6 18.4276L35.1039 25.5661L48.6078 13.9051L19.5073 6.7666Z" fill="#AFB1B8"/>
<path d="M36.7414 49.2786L48.6078 39.0314L36.7414 36.1191V49.2786Z" fill="#AFB1B8"/>
</svg>
